PathFileType	4	(X/Y/Z)	Patient4_TMGait_0pt2_01_left_07.trc.trc
DataRate	CameraRate	NumFrames	NumMarkers	Units	OrigDataRate	OrigDataStartFrame	OrigNumFrames
41.543026706231	41.543026706231	4	33	mm	41.543026706231	36	       141
Frame#	Time	Sacral			L.Shoulder			Chest			R.Shoulder			Neck			R.ASIS			L.ASIS			R.Thigh.Superior			R.Thigh.Lateral			R.Thigh.Inferior			R.Patella			L.Thigh.Superior			L.Thigh.Lateral			L.Thigh.Inferior			L.Patella			L.Shank.Superior			L.Shank.Lateral			L.Shank.Inferior			R.Shank.Superior			R.Shank.Lateral			R.Shank.Inferior			R.Heel			R.Midfoot.Superior			R.Midfoot.Lateral			R.Toe			L.Heel			L.Midfoot.Lateral			L.Midfoot.Superior			L.Toe			L.Elbow			L.Wrist			R.Elbow			R.Wrist			
		X1	Y1	Z1	X2	Y2	Z2	X3	Y3	Z3	X4	Y4	Z4	X5	Y5	Z5	X6	Y6	Z6	X7	Y7	Z7	X8	Y8	Z8	X9	Y9	Z9	X10	Y10	Z10	X11	Y11	Z11	X12	Y12	Z12	X13	Y13	Z13	X14	Y14	Z14	X15	Y15	Z15	X16	Y16	Z16	X17	Y17	Z17	X18	Y18	Z18	X19	Y19	Z19	X20	Y20	Z20	X21	Y21	Z21	X22	Y22	Z22	X23	Y23	Z23	X24	Y24	Z24	X25	Y25	Z25	X26	Y26	Z26	X27	Y27	Z27	X28	Y28	Z28	X29	Y29	Z29	X30	Y30	Z30	X31	Y31	Z31	X32	Y32	Z32	X33	Y33	Z33	

36	15.802500000000	807.693175059928	1005.814962353742	545.479331657301	937.038881302987	1425.011606415902	323.402517238793	1079.869353421676	1357.625877478818	451.993488352644	1046.197984531995	1434.976248029687	639.048219430771	962.689023546122	1489.864311702047	477.382918008287	1051.751033190193	929.936446864490	616.962563348142	988.967416137289	961.349716791884	350.611641608661	1046.554490501254	718.484642404557	585.602170650432	952.933988363171	620.784489014240	657.177668558179	1005.345179872533	557.640390117456	569.874343615416	986.242832774228	468.424789012766	578.452542773433	1062.354167853799	763.365961094162	378.474418059219	990.423937632337	636.731997161115	313.218706764416	1087.585766189849	570.626998838818	369.891460668254	1096.663921221882	501.708614951296	372.713759086748	1077.139506425767	428.392156893189	360.821478097119	997.889511266815	308.621389492771	304.567489048727	1064.255902785826	198.849572227293	365.788685601253	936.556197474958	387.886918036986	589.796984741555	846.850478924122	304.195221139898	658.819079791814	860.581083846208	202.249547816939	595.644928494511	693.391938387336	56.795180919829	573.246568070506	866.918069256681	96.590171203180	605.415364788053	776.279931093365	44.388676866996	647.311361944901	983.511331696212	38.496631381673	638.110166655260	948.817506764992	38.550787461718	399.076188445588	1024.115012159102	35.979526669986	319.390312761906	1106.918781159531	97.931769984117	347.230520436990	1235.099222443470	47.677975981836	320.787834115656	804.146163249585	1096.388849285773	245.888772544169	771.355755146663	838.203459077195	275.790542932208	1263.699959360039	1174.679677284724	721.700361546205	1490.634408695669	1242.754158574765	622.012819107219	
37	15.826571428571	808.957847442462	1006.446561725476	538.479624660563	939.346607648976	1425.700387122138	317.567812914797	1081.414521095182	1358.415991815462	447.076869703748	1046.291421939076	1435.541908073615	633.937895754422	963.655657728438	1490.518577759216	471.813791654243	1052.569761397406	930.526375237292	611.729853387443	991.599408323492	961.913831491673	345.069381766548	1046.915584438157	718.853279930889	581.776178316374	952.621617941844	621.868957357218	653.569948570787	1005.634499085049	557.862225073060	567.149676766367	986.225361083972	468.441517842014	576.351754021660	1064.439444245708	763.525104304740	374.039310481857	992.582092964041	636.706372533184	309.109052260810	1089.176896762647	570.429667172134	366.672285521451	1098.103780705545	501.067116114181	370.064373411336	1077.636202660518	427.630357568204	358.649959236817	997.265810380410	308.467913096171	302.734079625640	1061.509655205238	198.277883688815	365.188479604382	935.554612750725	388.426839579840	587.896886725806	844.661979445356	306.256261745711	657.175051522732	857.830290304999	203.602073121434	594.941284835303	689.294975530636	59.889629883499	573.080636627863	863.354551655266	97.481310223546	605.664514263288	772.000221300224	46.299031011088	647.168958091452	978.894634066738	38.120676074408	638.141206260235	944.206576633664	38.560911855945	399.039934333058	1019.472164690034	36.073213705343	319.334654057018	1102.383216393796	97.785285967023	347.325906487245	1230.556477137408	47.284546630261	320.757524650489	808.915065846855	1096.686078378510	237.126572243278	778.587652830073	837.993751767577	265.418915825005	1263.848940857643	1175.246814699323	716.574188050930	1492.552543230183	1239.844735697811	617.907440770133	
38	15.850642857143	810.142806614174	1007.069478180895	531.471774259704	941.655854344447	1426.437150923393	311.816455806685	1082.881255954026	1359.217803266289	442.302206543121	1046.252335629812	1436.097898009596	628.959051165298	964.589389920373	1491.195665714502	466.342091394981	1053.306758642979	931.143124592248	606.499865753831	994.152169483119	962.471876190486	339.517765911512	1047.306511115033	719.299123416543	577.899964347899	952.419370384894	622.990731691376	649.917376180529	1006.045212716842	558.161235651505	564.370044224963	986.343802120204	468.492694612839	574.194813079646	1066.244368635732	763.531432284028	369.453703602916	994.207357404473	636.594141739075	304.991847166937	1090.220679241115	570.108914120154	363.382328395582	1098.941311166402	500.360358471081	367.354819524175	1077.604677613495	426.855365663167	356.440962616941	996.192369862477	308.238700034341	300.963087662247	1058.486591510507	197.740987835647	364.557728359981	934.698415898302	389.049013862612	585.995709921105	842.616024107025	308.393680842768	655.485137191734	855.208345744854	205.044902669001	594.211052952750	685.282767730653	63.176474978293	572.898035994834	859.934706757279	98.491444374218	605.991948335302	767.776352582696	48.353564890024	647.018689783778	974.287111683019	37.779386622729	638.155507459371	939.529591087060	38.566651766628	399.020461682576	1014.764318330643	36.164478186308	319.304997326745	1097.745268594681	97.693430690524	347.401732596229	1225.933424510412	46.963060904179	320.717377996047	813.681080050080	1097.111287853445	228.337312253942	785.763880286200	837.954033696457	254.979415674978	1263.611545363686	1175.511829234590	711.716346458516	1494.309974675373	1236.061613604793	614.419757355391	
39	15.874714285714	811.262588011159	1007.655064996430	524.495343191764	943.894244181911	1427.204496932373	306.174655586503	1084.220941969999	1360.033458968414	437.675319330062	1046.051373681735	1436.644605596864	624.122816841991	965.439139159895	1491.882780835367	460.992726725819	1053.983609903153	931.780623131732	601.292775260168	996.630040628799	963.015743668773	333.975564741651	1047.712886220119	719.805001143100	573.986583465867	952.282933877627	624.145585910651	646.233679316648	1006.502869058801	558.527831260120	561.547577556505	986.506596026199	468.582887977760	571.987404033254	1067.825546649063	763.401327941897	364.761016986063	995.386637000783	636.393578719075	300.901747105190	1090.807044609457	569.671860288201	360.050605810991	1099.270032648919	499.595487273775	364.607500774913	1077.129624024077	426.065547295589	354.217153959185	994.743197417560	307.941583172763	299.266136027520	1055.250692744447	197.229959793330	363.905262916281	933.912657925689	389.750793722030	584.100671804936	840.666677407376	310.577628188021	653.761021230813	852.677471983627	206.549542613348	593.456579390397	681.345815794126	66.580372829456	572.706511515046	856.628749710603	99.578731138443	606.373686994999	763.603915312710	50.498634970762	646.863203756512	969.694809504323	37.481335068972	638.152215756708	934.797140370613	38.582226000413	399.011771715837	1010.005393340841	36.246438142584	319.297221355466	1093.044680230172	97.622644720566	347.458199285247	1221.254658122172	46.637777804331	320.672729921696	818.427568274047	1097.611461488780	219.559363518258	792.937763660193	838.023093770450	244.503667890155	1262.925934876313	1175.414170851685	707.156122009704	1495.799793569325	1231.313833286604	611.576987552999	
